<?xml version="1.0" standalone="no"?>
<!DOCTYPE svg PUBLIC "-//W3C//DTD SVG 20010904//EN"
 "http://www.w3.org/TR/2001/REC-SVG-20010904/DTD/svg10.dtd">
<svg version="1.0" xmlns="http://www.w3.org/2000/svg"
 width="500.000000pt" height="500.000000pt" viewBox="0 0 500.000000 500.000000"
 preserveAspectRatio="xMidYMid meet">

<g transform="translate(0.000000,500.000000) scale(0.100000,-0.100000)"
fill="#ffffff" stroke="none">
<path d="M2612 3820 c-99 -21 -229 -121 -278 -215 -21 -40 -33 -53 -44 -49
-92 39 -227 53 -322 35 -35 -7 -88 -27 -119 -44 l-57 -30 -57 61 c-60 65 -162
138 -240 173 -37 16 -67 21 -149 21 -167 0 -274 -47 -385 -168 -80 -88 -132
-195 -139 -284 l-5 -68 -65 -16 c-35 -9 -94 -33 -130 -53 -54 -32 -71 -49
-104 -103 -58 -97 -73 -156 -72 -285 1 -174 32 -266 132 -389 69 -84 108 -110
213 -146 l82 -27 17 -54 c27 -88 89 -197 149 -262 35 -39 187 -114 280 -139
49 -13 113 -20 181 -21 102 -2 107 -1 173 33 125 64 226 194 292 375 10 28 19
51 20 52 0 1 19 -4 40 -12 22 -8 65 -14 96 -15 57 0 183 32 194 50 12 19 31 9
50 -26 28 -52 98 -110 164 -135 45 -18 77 -23 162 -23 l106 -1 21 -67 c44
-140 165 -280 294 -341 173 -83 302 -99 458 -58 116 31 186 70 264 149 87 88
123 144 138 213 l12 57 96 -5 c140 -8 212 21 319 128 77 78 141 244 141 368 0
111 -56 251 -135 339 l-44 49 24 47 c47 93 42 201 -11 257 -17 18 -30 49 -40
95 -30 148 -116 263 -269 363 -82 54 -214 112 -308 137 -96 25 -277 15 -387
-21 -109 -35 -193 -77 -218 -110 -22 -28 -37 -32 -49 -12 -4 8 -24 24 -43 38
-19 13 -56 40 -81 60 -78 60 -266 100 -367 79z m256 -68 c58 -22 139 -80 215
-151 l49 -46 16 25 c33 49 73 79 158 114 222 93 413 87 629 -21 211 -106 347
-263 362 -420 5 -49 10 -63 39 -90 32 -30 34 -36 34 -98 0 -72 -16 -120 -49
-149 -11 -11 -21 -24 -21 -30 0 -6 22 -30 50 -54 36 -31 61 -66 91 -127 38
-76 42 -93 47 -177 6 -115 -8 -183 -56 -278 -33 -67 -45 -80 -117 -131 -44
-32 -99 -63 -123 -70 -51 -14 -179 -8 -208 11 -39 24 -54 7 -54 -60 0 -41 -6
-74 -20 -101 -29 -57 -150 -181 -207 -212 -69 -37 -215 -77 -282 -77 -130 1
-289 58 -391 142 -91 75 -190 245 -190 327 0 15 -15 17 -127 17 -73 0 -140 5
-156 12 -54 23 -137 93 -157 133 l-21 40 35 39 c19 21 40 48 46 60 11 21 12
21 58 -16 26 -21 71 -60 101 -88 36 -34 56 -46 59 -37 2 7 -17 32 -44 55 -107
90 -147 133 -141 150 10 25 29 11 137 -94 51 -50 98 -89 103 -87 15 5 -55 78
-147 157 -74 62 -76 66 -70 100 4 19 8 37 10 39 4 5 109 -73 151 -112 29 -27
62 -36 45 -11 -9 13 -168 141 -181 146 -6 1 -14 22 -19 45 -9 40 -9 42 9 32
11 -5 58 -39 104 -74 106 -79 105 -79 105 -63 0 16 -201 168 -222 168 -8 0
-33 27 -56 60 -26 36 -60 70 -88 86 -31 18 -42 30 -35 37 7 7 25 -2 56 -29 25
-21 84 -68 130 -104 46 -36 95 -76 109 -89 24 -23 53 -27 38 -5 -4 6 -73 63
-154 128 -137 109 -162 136 -139 150 9 6 152 -106 233 -180 51 -47 58 -51 58
-31 0 13 -186 175 -242 212 -32 20 -33 24 -14 50 13 18 16 16 67 -31 72 -67
165 -144 173 -144 14 0 4 22 -21 43 -100 84 -185 162 -190 174 -3 8 -1 23 4
35 8 19 15 15 105 -56 53 -42 99 -76 102 -76 24 0 -44 62 -193 176 -1 2 1 14
6 29 l8 26 70 -60 c64 -55 95 -73 95 -53 0 4 -36 36 -80 72 -43 36 -79 73 -80
83 0 26 14 21 65 -23 25 -22 50 -40 56 -40 22 0 5 22 -56 70 -50 40 -65 58
-65 78 l0 26 28 -26 c28 -26 62 -43 62 -30 0 4 -25 29 -56 56 -40 35 -52 51
-43 57 10 6 5 16 -19 41 -17 18 -48 52 -68 76 -36 41 -37 44 -25 83 15 50 96
131 182 182 l64 38 105 -4 c74 -3 121 -10 158 -25z m-1405 -36 c64 -19 175
-95 230 -158 26 -29 56 -63 67 -75 24 -29 29 -29 71 2 76 55 94 60 244 60 159
0 190 -10 265 -85 109 -109 125 -264 46 -435 -30 -64 -100 -145 -125 -145 -5
0 -11 -7 -15 -15 -4 -11 12 -23 57 -43 104 -48 176 -148 177 -244 0 -133 -123
-293 -253 -329 -69 -19 -168 -14 -216 11 -24 12 -49 19 -55 17 -7 -3 -18 -30
-24 -60 -6 -31 -32 -97 -58 -148 -56 -113 -132 -197 -217 -239 -52 -26 -71
-30 -143 -30 -45 0 -116 7 -156 15 -95 20 -265 101 -301 144 -48 58 -109 172
-134 252 -24 79 -24 79 -58 79 -71 0 -146 39 -221 114 -120 120 -159 229 -151
421 5 127 27 198 81 261 45 53 147 104 225 113 79 9 85 16 71 76 -14 60 -7 93
37 176 93 180 240 277 424 278 47 1 107 -5 132 -13z"/>
<path d="M2623 3706 c-55 -18 -106 -50 -138 -88 -39 -47 -23 -45 38 5 70 57
111 71 217 71 71 1 91 -3 121 -21 46 -29 69 -30 44 -3 -40 45 -192 64 -282 36z"/>
<path d="M3453 3690 c-80 -21 -113 -36 -113 -50 0 -15 17 -12 58 9 74 37 292
53 361 25 57 -23 88 -13 36 11 -60 28 -246 31 -342 5z"/>
<path d="M3910 3630 c0 -5 5 -10 11 -10 5 0 7 5 4 10 -3 6 -8 10 -11 10 -2 0
-4 -4 -4 -10z"/>
<path d="M4080 3523 c0 -5 18 -32 40 -60 81 -108 115 -212 127 -389 3 -52 10
-94 16 -94 17 0 1 208 -23 289 -25 88 -50 138 -103 208 -36 48 -57 65 -57 46z"/>
<path d="M3225 3163 c-14 -38 -27 -254 -23 -397 4 -158 19 -216 54 -216 30 0
80 31 124 75 l44 44 18 -30 c22 -36 72 -59 112 -52 36 7 91 62 105 106 9 26
21 38 50 49 l39 16 -9 -30 c-9 -34 2 -73 26 -82 44 -16 112 2 158 42 15 14 17
13 17 -2 0 -10 -34 -49 -75 -88 -98 -91 -109 -124 -71 -201 33 -69 96 -140
137 -157 31 -13 31 -14 9 -22 -14 -5 -20 -12 -14 -18 11 -10 141 11 215 35 64
22 117 73 155 151 32 66 38 140 15 207 -16 47 -37 51 -25 5 5 -18 9 -64 9
-103 0 -64 -3 -75 -38 -129 -22 -33 -49 -68 -60 -78 -19 -15 -134 -58 -158
-58 -4 0 -1 17 8 38 17 39 22 170 13 350 l-4 94 82 47 c101 58 98 77 -3 21
-40 -22 -75 -40 -79 -40 -3 0 -6 11 -6 25 0 38 -25 92 -48 104 -12 6 -32 11
-46 11 -21 0 -26 -5 -26 -24 0 -21 -6 -24 -52 -29 -29 -3 -73 -14 -98 -25 -25
-11 -60 -23 -77 -26 -29 -7 -32 -5 -38 23 -8 37 -45 78 -79 87 -60 15 -141
-54 -152 -129 -5 -30 -18 -53 -45 -80 -21 -22 -44 -37 -51 -35 -20 7 -23 195
-4 217 25 27 46 87 46 129 0 64 -27 138 -61 166 -36 30 -84 35 -94 9z m129
-125 c9 -35 7 -82 -5 -117 -15 -44 -33 -40 -25 7 3 20 6 58 6 85 0 49 13 63
24 25z m274 -240 c16 -16 15 -28 0 -28 -22 0 -41 17 -34 29 9 14 19 14 34 -1z
m307 -28 c8 -26 -6 -43 -51 -65 -45 -21 -66 -14 -62 22 2 20 13 33 38 45 46
23 67 23 75 -2z m-327 -45 c38 -8 40 -20 9 -66 -43 -64 -97 -39 -82 39 9 47
14 55 28 44 7 -5 27 -13 45 -17z m328 -352 c-10 -25 -45 -13 -80 29 -55 63
-48 97 33 181 l46 48 3 -123 c1 -67 0 -128 -2 -135z"/>
<path d="M2804 3004 c-15 -249 -12 -423 9 -461 16 -31 21 -33 70 -33 96 1 189
52 239 129 64 102 43 181 -48 181 l-44 0 35 63 c37 67 47 141 23 165 -32 32
-97 1 -134 -63 -9 -16 -11 -7 -10 47 1 82 -17 107 -86 115 l-45 5 -9 -148z
m246 -12 c0 -45 -48 -147 -85 -182 -14 -13 -27 -21 -29 -19 -9 8 35 163 57
202 29 51 57 51 57 -1z m52 -235 c25 -39 -17 -118 -92 -170 -50 -35 -56 -37
-67 -21 -8 11 -13 48 -13 91 0 72 0 73 32 89 67 35 122 39 140 11z"/>
<path d="M4230 2899 c0 -5 5 -7 10 -4 6 3 10 8 10 11 0 2 -4 4 -10 4 -5 0 -10
-5 -10 -11z"/>
<path d="M4250 2821 c0 -5 18 -31 40 -59 61 -77 80 -125 80 -212 0 -41 -7
-100 -16 -130 -37 -130 -23 -151 16 -25 30 96 31 213 2 279 -36 80 -122 184
-122 147z"/>
<path d="M4240 2684 c0 -8 5 -12 10 -9 6 3 10 10 10 16 0 5 -4 9 -10 9 -5 0
-10 -7 -10 -16z"/>
<path d="M2450 2342 c0 -12 180 -172 192 -172 22 0 0 25 -83 97 -93 81 -109
92 -109 75z"/>
<path d="M2420 2291 c0 -15 154 -153 158 -141 2 6 -26 39 -63 73 -74 68 -95
83 -95 68z"/>
<path d="M4265 2220 c-3 -5 -1 -10 4 -10 6 0 11 5 11 10 0 6 -2 10 -4 10 -3 0
-8 -4 -11 -10z"/>
<path d="M4045 2160 c3 -5 24 -10 46 -10 21 0 39 5 39 10 0 6 -21 10 -46 10
-27 0 -43 -4 -39 -10z"/>
<path d="M3790 2110 c0 -5 5 -10 10 -10 6 0 10 5 10 10 0 6 -4 10 -10 10 -5 0
-10 -4 -10 -10z"/>
<path d="M3732 2047 c-11 -24 -47 -73 -80 -108 -106 -113 -224 -151 -349 -111
-51 16 -63 17 -63 6 0 -7 12 -16 28 -20 15 -3 40 -10 56 -15 146 -46 361 75
430 243 23 53 1 58 -22 5z"/>
<path d="M2916 2053 c24 -98 157 -250 275 -313 62 -33 69 -35 69 -21 0 5 -19
19 -43 31 -56 28 -162 118 -209 178 -21 26 -47 71 -59 100 -22 55 -44 71 -33
25z"/>
<path d="M3842 1982 c-16 -46 -77 -132 -109 -154 -39 -27 -184 -98 -200 -98
-7 0 -13 -4 -13 -10 0 -36 190 52 256 118 50 50 102 148 87 163 -7 7 -14 1
-21 -19z"/>
<path d="M3335 1710 c-3 -5 1 -10 9 -10 9 0 16 5 16 10 0 6 -4 10 -9 10 -6 0
-13 -4 -16 -10z"/>
<path d="M1240 3665 c-65 -19 -138 -64 -180 -111 -55 -63 -119 -214 -90 -214
6 0 13 8 16 18 47 142 104 214 211 264 54 26 79 31 137 31 79 0 120 -16 173
-65 17 -17 37 -28 44 -26 16 5 -45 63 -96 90 -51 27 -144 32 -215 13z"/>
<path d="M1610 3499 c0 -5 5 -7 10 -4 6 3 10 8 10 11 0 2 -4 4 -10 4 -5 0 -10
-5 -10 -11z"/>
<path d="M1935 3480 c-66 -21 -120 -61 -148 -108 -26 -46 -3 -47 28 -2 34 49
72 73 149 95 70 21 176 16 226 -10 35 -18 50 -14 31 9 -32 38 -189 47 -286 16z"/>
<path d="M2265 3410 c-3 -5 -1 -10 4 -10 6 0 11 5 11 10 0 6 -2 10 -4 10 -3 0
-8 -4 -11 -10z"/>
<path d="M2320 3320 c0 -5 5 -10 10 -10 6 0 10 5 10 10 0 6 -4 10 -10 10 -5 0
-10 -4 -10 -10z"/>
<path d="M1499 3243 c-2 -10 -4 -53 -7 -116 l-2 -48 -29 22 c-49 36 -105 8
-164 -81 -17 -24 -17 -23 -17 47 0 89 -10 117 -52 143 -41 25 -133 29 -125 6
3 -8 -1 -102 -9 -208 -22 -276 -21 -478 3 -548 22 -65 46 -82 101 -68 20 5 48
17 60 27 22 16 23 21 13 57 -6 21 -11 80 -11 129 0 88 1 91 28 107 48 29 121
111 157 178 l36 65 -6 -53 c-4 -29 -7 -121 -7 -205 -1 -239 31 -315 121 -288
22 6 48 19 60 29 18 15 19 22 10 63 -5 25 -9 85 -7 134 l3 89 33 -87 c43 -113
88 -162 140 -153 22 3 50 19 73 42 43 42 114 168 104 184 -4 6 -29 -21 -56
-59 -51 -73 -111 -127 -129 -116 -29 18 -60 140 -60 238 0 63 4 70 68 118 98
73 112 90 112 126 0 24 -10 44 -34 70 l-33 37 -64 -46 c-36 -25 -83 -65 -106
-88 l-42 -42 6 101 c7 124 -3 156 -61 182 -41 19 -105 25 -107 12z m-82 -235
c-7 -59 -66 -173 -112 -218 -19 -19 -37 -31 -40 -29 -8 8 50 211 73 256 42 81
89 76 79 -9z"/>
<path d="M2377 3210 c-3 -8 -7 -38 -10 -66 -5 -68 -37 -131 -94 -188 -28 -27
-41 -46 -32 -46 19 0 102 86 123 128 24 47 38 134 27 163 -7 18 -10 20 -14 9z"/>
<path d="M723 3151 c-85 -55 -136 -110 -162 -178 -26 -66 -40 -183 -23 -183
13 0 19 25 20 80 1 19 12 61 24 94 25 64 93 135 170 178 38 21 61 48 41 48 -4
0 -36 -18 -70 -39z"/>
<path d="M2180 2800 c0 -5 5 -10 10 -10 6 0 10 5 10 10 0 6 -4 10 -10 10 -5 0
-10 -4 -10 -10z"/>
<path d="M2250 2752 c0 -5 13 -18 30 -30 61 -45 84 -134 60 -224 -13 -45 -79
-112 -144 -145 -42 -21 -58 -24 -103 -19 -53 6 -74 -6 -30 -18 76 -20 195 27
257 102 73 88 67 227 -12 310 -30 30 -58 42 -58 24z"/>
<path d="M555 2630 c3 -5 8 -10 11 -10 2 0 4 5 4 10 0 6 -5 10 -11 10 -5 0 -7
-4 -4 -10z"/>
<path d="M2210 2629 c0 -5 5 -7 10 -4 6 3 10 8 10 11 0 2 -4 4 -10 4 -5 0 -10
-5 -10 -11z"/>
<path d="M2220 2558 c-1 -43 -36 -104 -76 -128 -29 -19 -56 -25 -121 -28 -79
-4 -101 -13 -68 -26 18 -7 151 9 186 23 31 12 75 58 88 94 14 36 14 74 1 82
-6 3 -10 -4 -10 -17z"/>
<path d="M600 2539 c0 -43 118 -149 184 -165 41 -10 26 11 -27 38 -23 11 -68
48 -99 81 -32 32 -58 53 -58 46z"/>
<path d="M1865 2390 c3 -5 8 -10 11 -10 2 0 4 5 4 10 0 6 -5 10 -11 10 -5 0
-7 -4 -4 -10z"/>
<path d="M1827 2322 c-3 -26 -20 -84 -37 -129 -24 -64 -41 -91 -79 -126 -54
-51 -138 -97 -175 -97 -29 0 -43 -15 -21 -24 20 -7 97 17 137 44 48 34 118
101 133 130 21 41 65 182 65 212 0 47 -17 40 -23 -10z"/>
<path d="M960 2278 c0 -53 112 -214 193 -279 68 -54 166 -104 179 -91 7 7 -18
24 -69 51 -114 59 -193 142 -256 268 -27 53 -47 75 -47 51z"/>
<path d="M1876 2254 c-3 -9 -6 -28 -6 -42 0 -96 -87 -208 -204 -265 -72 -35
-101 -57 -74 -57 19 0 135 59 177 90 65 49 131 180 131 262 0 30 -14 38 -24
12z"/>
<path d="M1410 1910 c0 -5 5 -10 11 -10 5 0 7 5 4 10 -3 6 -8 10 -11 10 -2 0
-4 -4 -4 -10z"/>
<path d="M941 1735 c-24 -7 -59 -28 -77 -46 -29 -28 -34 -40 -34 -79 0 -59 28
-109 76 -138 34 -20 50 -22 132 -20 86 3 95 5 114 28 30 37 20 128 -20 184
-55 76 -111 97 -191 71z m123 -56 c14 -11 33 -34 41 -49 18 -35 20 -111 3
-128 -19 -19 -138 -15 -178 7 -45 23 -70 85 -52 125 28 61 133 87 186 45z"/>
<path d="M4054 1700 c-29 -16 -65 -46 -82 -66 -42 -50 -66 -140 -57 -214 9
-77 21 -92 81 -97 42 -4 55 0 96 27 86 57 158 161 158 227 0 47 -20 104 -45
129 -34 34 -86 32 -151 -6z m126 -32 c15 -17 20 -35 20 -78 0 -50 -5 -63 -39
-112 -52 -71 -104 -111 -148 -112 -33 -1 -36 2 -49 43 -27 91 18 196 106 249
64 38 82 40 110 10z"/>
<path d="M4263 1362 c-30 -5 -71 -45 -79 -78 -4 -16 -1 -45 7 -68 11 -34 19
-42 43 -44 47 -6 75 7 96 41 46 75 7 161 -67 149z m37 -80 c0 -48 -30 -82 -55
-62 -23 19 -19 66 7 84 36 26 48 20 48 -22z"/>
<path d="M780 1350 c-38 -9 -49 -53 -25 -98 22 -42 50 -51 96 -31 40 16 54 43
39 79 -16 39 -66 62 -110 50z m60 -55 c16 -20 1 -39 -26 -33 -27 5 -32 48 -6
48 11 0 25 -7 32 -15z"/>
</g>
</svg>
